<svg width="236" height="57" viewBox="0 0 236 57" fill="none" xmlns="http://www.w3.org/2000/svg">
<path d="M43.9199 1.24414V55H31.7012V18.709L26.8203 55H18.1543L13.0078 19.5391V55H0.789062V1.24414H18.8848C19.416 4.47591 19.9805 8.2832 20.5781 12.666L22.5039 26.3457L25.6914 1.24414H43.9199ZM73.6699 1.24414L81.6719 55H67.3613L66.6641 45.3379H61.6504L60.8203 55H46.3438L53.4492 1.24414H73.6699ZM66.2656 35.8086C65.5573 29.7214 64.849 22.2064 64.1406 13.2637C62.724 23.5345 61.8385 31.0495 61.4844 35.8086H66.2656ZM114.111 1.24414L109.23 25.0176L116.602 55H103.652C102.103 49.6432 100.686 43.1243 99.4023 35.4434C99.0482 38.8301 98.5612 42.4271 97.9414 46.2344L96.6133 55H83L88.0469 25.0176L83 1.24414H96.5137C96.7572 2.72721 97.2441 5.19531 97.9746 8.64844C98.5501 11.2826 99.026 13.6953 99.4023 15.8867L102.391 1.24414H114.111Z" fill="#F2A500"/>
<path d="M132.572 1.24414V44.2422H141.072V55H118.594V1.24414H132.572ZM175.371 32.7207C175.371 38.1217 175.238 41.9512 174.973 44.209C174.729 46.4447 173.932 48.4922 172.582 50.3516C171.254 52.2109 169.45 53.6387 167.17 54.6348C164.89 55.6309 162.234 56.1289 159.201 56.1289C156.324 56.1289 153.734 55.6641 151.432 54.7344C149.152 53.7826 147.314 52.3659 145.92 50.4844C144.525 48.6029 143.695 46.5553 143.43 44.3418C143.164 42.1283 143.031 38.2546 143.031 32.7207V23.5234C143.031 18.1224 143.153 14.304 143.396 12.0684C143.662 9.81055 144.459 7.75195 145.787 5.89258C147.137 4.0332 148.952 2.60547 151.232 1.60938C153.512 0.613281 156.169 0.115234 159.201 0.115234C162.079 0.115234 164.658 0.591146 166.938 1.54297C169.24 2.47266 171.088 3.87826 172.482 5.75977C173.877 7.64128 174.707 9.6888 174.973 11.9023C175.238 14.1159 175.371 17.9896 175.371 23.5234V32.7207ZM161.393 15.0566C161.393 12.5553 161.249 10.9616 160.961 10.2754C160.695 9.56706 160.131 9.21289 159.268 9.21289C158.537 9.21289 157.973 9.50065 157.574 10.0762C157.198 10.6296 157.01 12.2897 157.01 15.0566V40.1582C157.01 43.2793 157.132 45.2051 157.375 45.9355C157.641 46.666 158.238 47.0312 159.168 47.0312C160.12 47.0312 160.729 46.6107 160.994 45.7695C161.26 44.9284 161.393 42.9251 161.393 39.7598V15.0566ZM180.617 1.24414H204.291V12.002H194.596V22.1953H203.229V32.4219H194.596V55H180.617V1.24414ZM235.867 1.24414V12.002H227.566V55H213.588V12.002H205.32V1.24414H235.867Z" fill="white"/>
</svg>
