<svg width="36" height="36" viewBox="0 0 36 36" fill="none" xmlns="http://www.w3.org/2000/svg">
<path fill-rule="evenodd" clip-rule="evenodd" d="M36 18C36 27.9411 27.9411 36 18 36C8.05887 36 0 27.9411 0 18C0 8.05887 8.05887 0 18 0C27.9411 0 36 8.05887 36 18ZM18.6449 13.2884C16.8942 14.0166 13.3951 15.5238 8.14775 17.81C7.29566 18.1488 6.84929 18.4803 6.80866 18.8044C6.73999 19.3522 7.42598 19.5679 8.36012 19.8617C8.48718 19.9016 8.61884 19.943 8.75381 19.9869C9.67286 20.2856 10.9091 20.6351 11.5518 20.649C12.1348 20.6616 12.7855 20.4213 13.5039 19.928C18.4066 16.6185 20.9375 14.9457 21.0964 14.9096C21.2085 14.8842 21.3638 14.8522 21.4691 14.9457C21.5743 15.0393 21.564 15.2165 21.5528 15.264C21.4849 15.5537 18.7921 18.0571 17.3986 19.3526C16.9642 19.7565 16.656 20.043 16.593 20.1084C16.4519 20.255 16.3081 20.3936 16.1699 20.5269C15.3161 21.35 14.6758 21.9672 16.2053 22.9752C16.9404 23.4595 17.5286 23.8601 18.1153 24.2597C18.7562 24.6961 19.3953 25.1314 20.2223 25.6735C20.433 25.8116 20.6342 25.955 20.8302 26.0948C21.576 26.6264 22.246 27.1041 23.0738 27.0279C23.5548 26.9837 24.0516 26.5314 24.3039 25.1825C24.9002 21.9947 26.0724 15.0877 26.3432 12.2414C26.367 11.9921 26.3371 11.6729 26.3131 11.5328C26.2892 11.3927 26.2391 11.1931 26.057 11.0454C25.8413 10.8704 25.5084 10.8335 25.3595 10.8361C24.6824 10.848 23.6437 11.2092 18.6449 13.2884Z" fill="#00B2FF"/>
</svg>
